<?xml version="1.0" encoding="utf-8"?>
<!-- Generator: Adobe Illustrator 27.3.1, SVG Export Plug-In . SVG Version: 6.00 Build 0)  -->
<svg version="1.1" id="Layer_1" xmlns="http://www.w3.org/2000/svg" xmlns:xlink="http://www.w3.org/1999/xlink" x="0px"
	y="0px" viewBox="0 0 841.9 378.7" style="enable-background:new 0 0 841.9 378.7;" xml:space="preserve">
	<style type="text/css">
		.st0 {
			fill: #000000;
			opacity: 0;
		}

		.st1 {
			fill: #FFFFFF;
		}

		.st2 {
			fill: #67C3D0;
		}

		.st3 {
			fill: #FAE55A;
		}

		.st4 {
			fill: #A892C6;
		}
	</style>
	<rect class="st0" width="841.9" height="378.7" />
	<path class="st1" d="M484.1,49c0-3.4,3-6.9,6.9-6.9h23.3c3.9,0,6.9,3.4,6.9,6.9v31.9c0,3.9-3,6.9-6.9,6.9H491c-3.9,0-6.9-3-6.9-6.9
	V49z" />
	<path class="st1" d="M486.7,331.8V136.5c0-4.7,2.6-8.2,8.6-8.2H510c6,0,8.6,3.4,8.6,8.2v195.3c0,4.7-2.6,8.6-8.6,8.6h-14.7
	C489.3,340.4,486.7,336.5,486.7,331.8z" />
	<path class="st2" d="M128.5,317.7c0-3.7-2.6-6.8-6.1-7.6c-26-6-44.2-26-44.2-56.3v-2.6c0-4.7-3.9-8.6-8.6-8.6H52.3
	c-4.7,0-8.6,3.9-8.6,8.6v2.6c0,51.6,30.9,82.7,75.7,89.8c4.8,0.8,9.1-2.9,9.1-7.8V317.7z" />
	<path class="st1" d="M164.4,173.6l-32.3-9.9c-23.3-6.9-44.4-20.7-44.4-50s22.4-46.6,53.5-46.6c32.8,0,53.9,17.7,53.9,47v5.2
	c0,4.7,3.9,8.6,8.6,8.6h16.8c4.7,0,8.6-3.9,8.6-8.6v-5.2c0-48.7-37.9-80.2-87.9-80.2c-48.3,0-88.4,31.9-88.4,80.2
	c0,47.4,28.9,70.3,64.2,80.6l32.8,9.9c31,9.5,48.7,25,48.7,54.3c0,26.3-17.1,46.2-43.6,51.6c-3.7,0.7-6.3,4-6.3,7.7V336
	c0,4.8,4.3,8.5,9,7.8c45.8-7.1,75.8-41.6,75.8-85.7C233.3,210.7,205.3,186.5,164.4,173.6z" />
	<path class="st1" d="M568.1,331.8c0,4.7,3.9,8.6,8.6,8.6H591c4.7,0,8.6-3.9,8.6-8.6V163.2c0-2.6,1.7-4.3,4.3-4.3l92.7,0
	c2.4,0,4.3,1.9,4.3,4.3v43.3c0,4.3,3.5,7.9,7.9,7.9h16.2c4.3,0,7.9-3.5,7.9-7.9v-43.3c0-2.4,1.9-4.3,4.3-4.3h52.6
	c4.7,0,8.6-3.9,8.6-8.6v-13.4c0-4.7-3.9-8.6-8.6-8.6h-52.6c-2.4,0-4.3-1.9-4.3-4.3V59.8c0-4.7-3.9-8.6-8.6-8.6h-14.7
	c-4.7,0-8.6,3.9-8.6,8.6V124c0,2.4-1.9,4.3-4.3,4.3l-92.7,0c-2.6,0-4.3-1.7-4.3-4.3v-23.7c0-22.4,13.4-35.8,35.3-35.8h12.9
	c4.7,0,8.6-3.9,8.6-8.6V43c0-4.7-3.9-8.6-8.6-8.6h-14.2c-40.1,0-65.5,28-65.5,65.5V331.8z" />
	<path class="st3" d="M789.7,308.9h-22.8c-21.1,0-34.1-11.6-34.1-34.1v-32.7c0-4.3-3.5-7.9-7.9-7.9h-16.2c-4.3,0-7.9,3.5-7.9,7.9
	v34.4c0,38.4,22.4,63.8,64.2,63.8h24.6c4.7,0,8.6-3.9,8.6-8.6v-14.2C798.3,312.8,794.5,308.9,789.7,308.9z" />
	<path class="st1" d="M307.4,43c0-4.7-3.9-8.6-8.6-8.6h-14.7c-4.7,0-8.6,3.9-8.6,8.6v288.8c0,4.7,3.9,8.6,8.6,8.6h14.7
	c4.7,0,8.6-3.9,8.6-8.6V43z" />
	<path class="st4" d="M404.4,205.5v1c0,4.3,3.5,7.9,7.9,7.9h16.2c4.3,0,7.9-3.5,7.9-7.9v-3.2c0-52.2-31.9-79.8-72.4-79.8
	c-14.6,0-24.4,3.2-31.5,6.5c-2.8,1.3-4.5,4.1-4.5,7.1v12.9c0,5.3,5.2,9.1,10.3,7.5c5.4-1.7,11.3-2.6,17.6-2.6
	C383.7,155,404.4,171.4,404.4,205.5z" />
	<path class="st1" d="M404.4,242.2v89.6c0,4.7,3.9,8.6,8.6,8.6h14.7c4.7,0,8.6-3.9,8.6-8.6v-89.6c0-4.3-3.5-7.9-7.9-7.9h-16.2
	C407.9,234.4,404.4,237.9,404.4,242.2z" />
</svg>